<svg xmlns="http://www.w3.org/2000/svg" xmlns:xlink="http://www.w3.org/1999/xlink" width="67" zoomAndPan="magnify" viewBox="0 0 50.25 50.999998" height="68" preserveAspectRatio="xMidYMid meet" version="1.0"><defs><g/><clipPath id="bc98de2a6b"><path d="M 0 0.375 L 49.511719 0.375 L 49.511719 50.625 L 0 50.625 Z M 0 0.375 " clip-rule="nonzero"/></clipPath></defs><g clip-path="url(#bc98de2a6b)"><path fill="#ffffff" d="M 0 0.375 L 49.511719 0.375 L 49.511719 50.625 L 0 50.625 Z M 0 0.375 " fill-opacity="1" fill-rule="nonzero"/><path fill="#97ce9b" d="M 0 0.375 L 49.511719 0.375 L 49.511719 50.625 L 0 50.625 Z M 0 0.375 " fill-opacity="1" fill-rule="nonzero"/></g><g fill="#000000" fill-opacity="1"><g transform="translate(7.168014, 40.648894)"><g><path d="M 25.078125 -16.5625 C 27.472656 -16.113281 29.34375 -15.175781 30.6875 -13.75 C 32.039062 -12.320312 32.71875 -10.5625 32.71875 -8.46875 C 32.71875 -6.539062 32.066406 -4.859375 30.765625 -3.421875 C 29.460938 -1.984375 27.609375 -0.875 25.203125 -0.09375 C 22.804688 0.6875 20.003906 1.078125 16.796875 1.078125 C 11.898438 1.078125 8.363281 0.5 6.1875 -0.65625 C 4.007812 -1.8125 2.921875 -3.691406 2.921875 -6.296875 C 2.921875 -7.585938 3.097656 -9.492188 3.453125 -12.015625 C 3.816406 -14.535156 4.507812 -18.722656 5.53125 -24.578125 L 3.15625 -29.390625 C 6.539062 -31.585938 9.628906 -32.6875 12.421875 -32.6875 C 14.285156 -32.6875 15.394531 -31.785156 15.75 -29.984375 C 18.84375 -31.753906 21.875 -32.640625 24.84375 -32.640625 C 27.25 -32.640625 29.140625 -32.03125 30.515625 -30.8125 C 31.898438 -29.59375 32.59375 -27.9375 32.59375 -25.84375 C 32.59375 -23.738281 31.953125 -21.90625 30.671875 -20.34375 C 29.398438 -18.78125 27.535156 -17.519531 25.078125 -16.5625 Z M 15.3125 -26.0625 C 14.914062 -24.195312 14.40625 -21.195312 13.78125 -17.0625 C 16.539062 -17.238281 18.726562 -17.890625 20.34375 -19.015625 C 21.96875 -20.140625 22.78125 -21.570312 22.78125 -23.3125 C 22.78125 -25.5625 21.503906 -26.6875 18.953125 -26.6875 C 17.597656 -26.6875 16.382812 -26.476562 15.3125 -26.0625 Z M 17.234375 -4 C 18.953125 -4 20.328125 -4.457031 21.359375 -5.375 C 22.390625 -6.289062 22.90625 -7.515625 22.90625 -9.046875 C 22.90625 -10.484375 22.425781 -11.597656 21.46875 -12.390625 C 20.507812 -13.191406 19.160156 -13.59375 17.421875 -13.59375 C 16.015625 -13.59375 14.601562 -13.351562 13.1875 -12.875 C 12.832031 -9.9375 12.535156 -7.3125 12.296875 -5 C 12.984375 -4.695312 13.769531 -4.453125 14.65625 -4.265625 C 15.539062 -4.085938 16.398438 -4 17.234375 -4 Z M 17.234375 -4 "/></g></g></g></svg>