<svg xmlns="http://www.w3.org/2000/svg" xmlns:xlink="http://www.w3.org/1999/xlink" width="67" zoomAndPan="magnify" viewBox="0 0 50.25 50.999998" height="68" preserveAspectRatio="xMidYMid meet" version="1.0"><defs><clipPath id="d6563a0b73"><path d="M 0 0.375 L 49.511719 0.375 L 49.511719 50.625 L 0 50.625 Z M 0 0.375 " clip-rule="nonzero"/></clipPath><clipPath id="dd3d2059ff"><path d="M 15.894531 6.746094 L 34.367188 6.746094 L 34.367188 45.910156 L 15.894531 45.910156 Z M 15.894531 6.746094 " clip-rule="nonzero"/></clipPath></defs><g clip-path="url(#d6563a0b73)"><path fill="#ffffff" d="M 0 0.375 L 49.511719 0.375 L 49.511719 50.625 L 0 50.625 Z M 0 0.375 " fill-opacity="1" fill-rule="nonzero"/><path fill="#ffffff" d="M 0 0.375 L 49.511719 0.375 L 49.511719 50.625 L 0 50.625 Z M 0 0.375 " fill-opacity="1" fill-rule="nonzero"/></g><g clip-path="url(#dd3d2059ff)"><path fill="#5271ff" d="M 30.042969 13.199219 L 34.285156 13.199219 L 34.285156 6.800781 L 28.867188 6.800781 L 28.867188 6.824219 C 21.746094 7.085938 20.277344 11.078125 20.152344 15.296875 L 20.136719 15.296875 L 20.136719 19.734375 L 15.894531 19.734375 L 15.894531 26.140625 L 20.136719 26.140625 L 20.136719 45.613281 L 27.75 45.613281 L 27.75 26.140625 L 33.210938 26.140625 L 34.285156 19.734375 L 27.75 19.734375 L 27.75 15.761719 C 27.75 14.347656 28.695312 13.199219 30.042969 13.199219 Z M 30.042969 13.199219 " fill-opacity="1" fill-rule="nonzero"/></g></svg>