<svg xmlns="http://www.w3.org/2000/svg" xmlns:xlink="http://www.w3.org/1999/xlink" width="67" zoomAndPan="magnify" viewBox="0 0 50.25 50.999998" height="68" preserveAspectRatio="xMidYMid meet" version="1.0"><defs><clipPath id="14f51c3f27"><path d="M 0 0.375 L 49.511719 0.375 L 49.511719 50.625 L 0 50.625 Z M 0 0.375 " clip-rule="nonzero"/></clipPath><clipPath id="eed75a6ff7"><path d="M 21 6.507812 L 30 6.507812 L 30 45.675781 L 21 45.675781 Z M 21 6.507812 " clip-rule="nonzero"/></clipPath><clipPath id="2db5b73367"><path d="M 6 20 L 44.929688 20 L 44.929688 30 L 6 30 Z M 6 20 " clip-rule="nonzero"/></clipPath><clipPath id="f21d94cd42"><path d="M 22.222656 15.449219 L 28.875 15.449219 L 28.875 28.75 L 22.222656 28.75 Z M 22.222656 15.449219 " clip-rule="nonzero"/></clipPath></defs><g clip-path="url(#14f51c3f27)"><path fill="#ffffff" d="M 0 0.375 L 49.511719 0.375 L 49.511719 50.625 L 0 50.625 Z M 0 0.375 " fill-opacity="1" fill-rule="nonzero"/><path fill="#a6a6a6" d="M 0 0.375 L 49.511719 0.375 L 49.511719 50.625 L 0 50.625 Z M 0 0.375 " fill-opacity="1" fill-rule="nonzero"/></g><g clip-path="url(#eed75a6ff7)"><path fill="#ffffff" d="M 22.164062 41.882812 C 22.109375 41.546875 22.085938 41.210938 22.089844 40.882812 C 22.089844 40.871094 22.089844 40.855469 22.089844 40.839844 C 22.105469 40.164062 22.109375 39.5625 22.101562 39.039062 C 22.085938 37.910156 22.058594 36.640625 22.019531 35.238281 L 22.019531 35.257812 C 21.894531 31.289062 21.746094 26.8125 21.574219 21.832031 L 21.574219 21.820312 C 21.53125 20.535156 21.5 19.335938 21.476562 18.21875 L 21.476562 18.214844 C 21.398438 14.5 21.394531 11.820312 21.457031 10.175781 C 21.539062 8.113281 23.277344 6.507812 25.339844 6.589844 C 27.398438 6.667969 29.003906 8.40625 28.925781 10.46875 C 28.867188 11.964844 28.871094 14.496094 28.945312 18.0625 C 28.96875 19.152344 29 20.328125 29.042969 21.582031 L 29.039062 21.570312 C 29.214844 26.5625 29.363281 31.046875 29.488281 35.019531 C 29.488281 35.027344 29.488281 35.03125 29.488281 35.039062 C 29.527344 36.472656 29.554688 37.773438 29.570312 38.933594 C 29.578125 39.550781 29.574219 40.238281 29.558594 41.003906 L 29.558594 40.957031 C 29.558594 40.859375 29.554688 40.769531 29.539062 40.683594 C 29.871094 42.722656 28.488281 44.640625 26.449219 44.96875 C 24.414062 45.300781 22.496094 43.917969 22.164062 41.882812 Z M 22.164062 41.882812 " fill-opacity="1" fill-rule="nonzero"/></g><g clip-path="url(#2db5b73367)"><path fill="#ffffff" d="M 9.179688 21.746094 C 9.515625 21.695312 9.847656 21.667969 10.175781 21.671875 C 10.191406 21.671875 10.207031 21.671875 10.222656 21.671875 C 10.898438 21.6875 11.496094 21.691406 12.023438 21.683594 C 13.152344 21.667969 14.417969 21.640625 15.824219 21.605469 L 15.804688 21.605469 C 19.773438 21.480469 24.246094 21.328125 29.230469 21.15625 L 29.242188 21.15625 C 30.523438 21.117188 31.726562 21.082031 32.84375 21.058594 C 36.5625 20.984375 39.242188 20.976562 40.886719 21.042969 C 42.949219 21.121094 44.554688 22.859375 44.472656 24.921875 C 44.390625 26.984375 42.65625 28.589844 40.59375 28.507812 C 39.097656 28.449219 36.566406 28.457031 33 28.53125 C 31.910156 28.554688 30.734375 28.585938 29.480469 28.625 L 29.488281 28.625 C 24.5 28.796875 20.015625 28.945312 16.042969 29.070312 C 16.035156 29.070312 16.027344 29.070312 16.023438 29.070312 C 14.585938 29.109375 13.289062 29.136719 12.128906 29.152344 L 12.125 29.152344 C 11.511719 29.164062 10.820312 29.15625 10.054688 29.140625 L 10.101562 29.140625 C 10.199219 29.144531 10.292969 29.136719 10.375 29.121094 C 8.339844 29.453125 6.421875 28.070312 6.089844 26.035156 C 5.761719 23.996094 7.144531 22.078125 9.179688 21.746094 Z M 9.179688 21.746094 " fill-opacity="1" fill-rule="nonzero"/></g><g clip-path="url(#f21d94cd42)"><path fill="#ffffff" d="M 27.339844 17.660156 L 28.875 17.660156 L 28.875 15.476562 L 26.914062 15.476562 L 26.914062 15.484375 C 24.339844 15.574219 23.808594 16.933594 23.765625 18.375 L 23.757812 18.375 L 23.757812 19.890625 L 22.222656 19.890625 L 22.222656 22.078125 L 23.757812 22.078125 L 23.757812 28.726562 L 26.511719 28.726562 L 26.511719 22.078125 L 28.484375 22.078125 L 28.875 19.890625 L 26.511719 19.890625 L 26.511719 18.535156 C 26.511719 18.050781 26.851562 17.660156 27.339844 17.660156 Z M 27.339844 17.660156 " fill-opacity="1" fill-rule="nonzero"/></g></svg>